<svg width="24" height="24" viewBox="0 0 24 24" fill="none" xmlns="http://www.w3.org/2000/svg">
<path d="M17.4727 6.97266L18.5273 8.02734L9.75 16.8047L5.47266 12.5273L6.52734 11.4727L9.75 14.6953L17.4727 6.97266ZM12 0C13.1016 0 14.1641 0.144531 15.1875 0.433594C16.2109 0.714844 17.168 1.11719 18.0586 1.64062C18.9492 2.15625 19.7578 2.78125 20.4844 3.51562C21.2188 4.24219 21.8438 5.05078 22.3594 5.94141C22.8828 6.83203 23.2852 7.78906 23.5664 8.8125C23.8555 9.83594 24 10.8984 24 12C24 13.1016 23.8555 14.1641 23.5664 15.1875C23.2852 16.2109 22.8828 17.168 22.3594 18.0586C21.8438 18.9492 21.2188 19.7617 20.4844 20.4961C19.7578 21.2227 18.9492 21.8477 18.0586 22.3711C17.168 22.8867 16.2109 23.2891 15.1875 23.5781C14.1641 23.8594 13.1016 24 12 24C10.8984 24 9.83594 23.8594 8.8125 23.5781C7.78906 23.2891 6.83203 22.8867 5.94141 22.3711C5.05078 21.8477 4.23828 21.2227 3.50391 20.4961C2.77734 19.7617 2.15234 18.9492 1.62891 18.0586C1.11328 17.168 0.710938 16.2148 0.421875 15.1992C0.140625 14.1758 0 13.1094 0 12C0 10.8984 0.140625 9.83594 0.421875 8.8125C0.710938 7.78906 1.11328 6.83203 1.62891 5.94141C2.15234 5.05078 2.77734 4.24219 3.50391 3.51562C4.23828 2.78125 5.05078 2.15625 5.94141 1.64062C6.83203 1.11719 7.78516 0.714844 8.80078 0.433594C9.82422 0.144531 10.8906 0 12 0ZM12 22.5C12.9609 22.5 13.8867 22.375 14.7773 22.125C15.6758 21.875 16.5117 21.5234 17.2852 21.0703C18.0664 20.6094 18.7773 20.0586 19.418 19.418C20.0586 18.7773 20.6055 18.0703 21.0586 17.2969C21.5195 16.5156 21.875 15.6797 22.125 14.7891C22.375 13.8984 22.5 12.9688 22.5 12C22.5 11.0391 22.375 10.1133 22.125 9.22266C21.875 8.32422 21.5195 7.48828 21.0586 6.71484C20.6055 5.93359 20.0586 5.22266 19.418 4.58203C18.7773 3.94141 18.0664 3.39453 17.2852 2.94141C16.5117 2.48047 15.6758 2.125 14.7773 1.875C13.8867 1.625 12.9609 1.5 12 1.5C11.0391 1.5 10.1094 1.625 9.21094 1.875C8.32031 2.125 7.48438 2.48047 6.70312 2.94141C5.92969 3.39453 5.22266 3.94141 4.58203 4.58203C3.94141 5.22266 3.39062 5.93359 2.92969 6.71484C2.47656 7.48828 2.125 8.32422 1.875 9.22266C1.625 10.1133 1.5 11.0391 1.5 12C1.5 12.9609 1.625 13.8906 1.875 14.7891C2.125 15.6797 2.47656 16.5156 2.92969 17.2969C3.39062 18.0703 3.94141 18.7773 4.58203 19.418C5.22266 20.0586 5.92969 20.6094 6.70312 21.0703C7.48438 21.5234 8.32031 21.875 9.21094 22.125C10.1016 22.375 11.0312 22.5 12 22.5Z" fill="#3954FD"/>
</svg>
